<mxfile host="Electron" modified="2024-02-04T12:28:57.627Z" agent="Mozilla/5.0 (Windows NT 10.0; Win64; x64) AppleWebKit/537.36 (KHTML, like Gecko) draw.io/23.0.2 Chrome/120.0.6099.109 Electron/28.1.0 Safari/537.36" etag="s3kjFrNcnTy7KJCNDe5V" version="23.0.2" type="device">
  <diagram name="Page-1" id="LBA8TUVYQmkTKsLB78qL">
    <mxGraphModel dx="794" dy="511" grid="1" gridSize="10" guides="1" tooltips="1" connect="1" arrows="1" fold="1" page="1" pageScale="1" pageWidth="827" pageHeight="1169" math="0" shadow="0">
      <root>
        <mxCell id="0" />
        <mxCell id="1" parent="0" />
        <UserObject label="Faculty Member" type="externalEntity" source="" flow="Access Repository Items" placeholders="1" id="AH9lQ4MrwQAidTvipS9e-1">
          <mxCell style="shape=rectangle;whiteSpace=wrap;html=1;fillColor=#ffffff;strokeColor=#000000;align=center;verticalAlign=middle;fontColor=#232F3E;" vertex="1" parent="1">
            <mxGeometry x="81.25" width="115" height="35" as="geometry" />
          </mxCell>
        </UserObject>
        <UserObject label="Cornell Faculty Member" type="externalEntity" source="" flow="Manage Data and Publications" placeholders="1" id="AH9lQ4MrwQAidTvipS9e-2">
          <mxCell style="shape=rectangle;whiteSpace=wrap;html=1;fillColor=#ffffff;strokeColor=#000000;align=center;verticalAlign=middle;fontColor=#232F3E;" vertex="1" parent="1">
            <mxGeometry x="318.75" width="155" height="35" as="geometry" />
          </mxCell>
        </UserObject>
        <UserObject label="Patron" type="externalEntity" source="" flow="Notification Preferences,Access Report/Dataset Schedule" placeholders="1" id="AH9lQ4MrwQAidTvipS9e-3">
          <mxCell style="shape=rectangle;whiteSpace=wrap;html=1;fillColor=#ffffff;strokeColor=#000000;align=center;verticalAlign=middle;fontColor=#232F3E;" vertex="1" parent="1">
            <mxGeometry x="815" width="65" height="35" as="geometry" />
          </mxCell>
        </UserObject>
        <UserObject label="Access Repository Items" type="process" source="1" flow="Repository Items" placeholders="1" id="AH9lQ4MrwQAidTvipS9e-4">
          <mxCell style="shape=ellipse;perimeter=ellipsePerimeter;whiteSpace=wrap;html=1;fillColor=#ffffff;strokeColor=#000000;align=center;verticalAlign=middle;fontColor=#232F3E;" vertex="1" parent="1">
            <mxGeometry y="135" width="165" height="35" as="geometry" />
          </mxCell>
        </UserObject>
        <UserObject label="Manage Data and Publications" type="process" source="2" flow="Publication Data" placeholders="1" id="AH9lQ4MrwQAidTvipS9e-5">
          <mxCell style="shape=ellipse;perimeter=ellipsePerimeter;whiteSpace=wrap;html=1;fillColor=#ffffff;strokeColor=#000000;align=center;verticalAlign=middle;fontColor=#232F3E;" vertex="1" parent="1">
            <mxGeometry x="298.75" y="135" width="195" height="35" as="geometry" />
          </mxCell>
        </UserObject>
        <UserObject label="Notification Preferences" type="process" source="3" flow="Email Preferences" placeholders="1" id="AH9lQ4MrwQAidTvipS9e-6">
          <mxCell style="shape=ellipse;perimeter=ellipsePerimeter;whiteSpace=wrap;html=1;fillColor=#ffffff;strokeColor=#000000;align=center;verticalAlign=middle;fontColor=#232F3E;" vertex="1" parent="1">
            <mxGeometry x="596.25" y="135" width="155" height="35" as="geometry" />
          </mxCell>
        </UserObject>
        <UserObject label="Access Report/Dataset Schedule" type="process" source="3" flow="Report/Dataset Schedule" placeholders="1" id="AH9lQ4MrwQAidTvipS9e-7">
          <mxCell style="shape=ellipse;perimeter=ellipsePerimeter;whiteSpace=wrap;html=1;fillColor=#ffffff;strokeColor=#000000;align=center;verticalAlign=middle;fontColor=#232F3E;" vertex="1" parent="1">
            <mxGeometry x="811.25" y="135" width="205" height="35" as="geometry" />
          </mxCell>
        </UserObject>
        <UserObject label="Repository" type="dataStore" source="4" flow="Repository Items" placeholders="1" id="AH9lQ4MrwQAidTvipS9e-8">
          <mxCell style="html=1;dashed=0;whiteSpace=wrap;shape=partialRectangle;right=0;left=0;" vertex="1" parent="1">
            <mxGeometry x="40" y="270" width="85" height="35" as="geometry" />
          </mxCell>
        </UserObject>
        <UserObject label="Publication Data" type="dataStore" source="5" flow="Data Upload,Publication Association" placeholders="1" id="AH9lQ4MrwQAidTvipS9e-9">
          <mxCell style="html=1;dashed=0;whiteSpace=wrap;shape=partialRectangle;right=0;left=0;" vertex="1" parent="1">
            <mxGeometry x="328.75" y="270" width="115" height="35" as="geometry" />
          </mxCell>
        </UserObject>
        <UserObject label="Email Preferences" type="dataStore" source="6" flow="Email Notification Preferences" placeholders="1" id="AH9lQ4MrwQAidTvipS9e-10">
          <mxCell style="html=1;dashed=0;whiteSpace=wrap;shape=partialRectangle;right=0;left=0;" vertex="1" parent="1">
            <mxGeometry x="631.25" y="270" width="125" height="35" as="geometry" />
          </mxCell>
        </UserObject>
        <UserObject label="Report/Dataset Schedule" type="dataStore" source="7" flow="Report/Dataset Timing" placeholders="1" id="AH9lQ4MrwQAidTvipS9e-11">
          <mxCell style="html=1;dashed=0;whiteSpace=wrap;shape=partialRectangle;right=0;left=0;" vertex="1" parent="1">
            <mxGeometry x="816.25" y="270" width="165" height="35" as="geometry" />
          </mxCell>
        </UserObject>
        <UserObject label="Repository Items" type="dataFlow" source="1,8" flow="Access Repository Items" placeholders="1" id="AH9lQ4MrwQAidTvipS9e-12">
          <mxCell style="whiteSpace=wrap;html=1;rounded=1;fillColor=#ffffff;strokeColor=#000000;" vertex="1" parent="1">
            <mxGeometry x="61.25" y="405" width="115" height="35" as="geometry" />
          </mxCell>
        </UserObject>
        <UserObject label="Data Upload" type="dataFlow" source="2,9" flow="Manage Data and Publications" placeholders="1" id="AH9lQ4MrwQAidTvipS9e-13">
          <mxCell style="whiteSpace=wrap;html=1;rounded=1;fillColor=#ffffff;strokeColor=#000000;" vertex="1" parent="1">
            <mxGeometry x="256.25" y="405" width="95" height="35" as="geometry" />
          </mxCell>
        </UserObject>
        <UserObject label="Publication Association" type="dataFlow" source="2,9" flow="Manage Data and Publications" placeholders="1" id="AH9lQ4MrwQAidTvipS9e-14">
          <mxCell style="whiteSpace=wrap;html=1;rounded=1;fillColor=#ffffff;strokeColor=#000000;" vertex="1" parent="1">
            <mxGeometry x="381.25" y="405" width="155" height="35" as="geometry" />
          </mxCell>
        </UserObject>
        <UserObject label="Email Notification Preferences" type="dataFlow" source="3,10" flow="Notification Preferences" placeholders="1" id="AH9lQ4MrwQAidTvipS9e-15">
          <mxCell style="whiteSpace=wrap;html=1;rounded=1;fillColor=#ffffff;strokeColor=#000000;" vertex="1" parent="1">
            <mxGeometry x="641.25" y="405" width="185" height="35" as="geometry" />
          </mxCell>
        </UserObject>
        <UserObject label="Report/Dataset Timing" type="dataFlow" source="3,11" flow="Access Report/Dataset Schedule" placeholders="1" id="AH9lQ4MrwQAidTvipS9e-16">
          <mxCell style="whiteSpace=wrap;html=1;rounded=1;fillColor=#ffffff;strokeColor=#000000;" vertex="1" parent="1">
            <mxGeometry x="882.5" y="405" width="145" height="35" as="geometry" />
          </mxCell>
        </UserObject>
        <mxCell id="AH9lQ4MrwQAidTvipS9e-17" value="Repository Items" style="endArrow=blockThin;endFill=1;fontSize=11;orthogonal=1;noEdgeStyle=1;" edge="1" parent="1" source="AH9lQ4MrwQAidTvipS9e-1" target="AH9lQ4MrwQAidTvipS9e-4">
          <mxGeometry relative="1" as="geometry">
            <Array as="points">
              <mxPoint x="112.5" y="47" />
              <mxPoint x="82.5" y="123" />
            </Array>
          </mxGeometry>
        </mxCell>
        <mxCell id="AH9lQ4MrwQAidTvipS9e-18" value="Publication Data" style="endArrow=blockThin;endFill=1;fontSize=11;orthogonal=1;noEdgeStyle=1;" edge="1" parent="1" source="AH9lQ4MrwQAidTvipS9e-2" target="AH9lQ4MrwQAidTvipS9e-5">
          <mxGeometry relative="1" as="geometry">
            <Array as="points">
              <mxPoint x="396.25" y="49" />
              <mxPoint x="396.25" y="123" />
            </Array>
          </mxGeometry>
        </mxCell>
        <mxCell id="AH9lQ4MrwQAidTvipS9e-19" value="Email Preferences" style="endArrow=blockThin;endFill=1;fontSize=11;orthogonal=1;noEdgeStyle=1;" edge="1" parent="1" source="AH9lQ4MrwQAidTvipS9e-3" target="AH9lQ4MrwQAidTvipS9e-6">
          <mxGeometry relative="1" as="geometry">
            <Array as="points">
              <mxPoint x="826.875" y="47" />
              <mxPoint x="673.75" y="123" />
            </Array>
          </mxGeometry>
        </mxCell>
        <mxCell id="AH9lQ4MrwQAidTvipS9e-20" value="Report/Dataset Schedule" style="endArrow=blockThin;endFill=1;fontSize=11;orthogonal=1;noEdgeStyle=1;" edge="1" parent="1" source="AH9lQ4MrwQAidTvipS9e-3" target="AH9lQ4MrwQAidTvipS9e-7">
          <mxGeometry relative="1" as="geometry">
            <Array as="points">
              <mxPoint x="854.375" y="49" />
              <mxPoint x="913.75" y="123" />
            </Array>
          </mxGeometry>
        </mxCell>
        <mxCell id="AH9lQ4MrwQAidTvipS9e-21" value="Repository Items" style="endArrow=blockThin;endFill=1;fontSize=11;orthogonal=1;noEdgeStyle=1;" edge="1" parent="1" source="AH9lQ4MrwQAidTvipS9e-4" target="AH9lQ4MrwQAidTvipS9e-8">
          <mxGeometry relative="1" as="geometry">
            <Array as="points">
              <mxPoint x="82.5" y="182" />
              <mxPoint x="82.5" y="258" />
            </Array>
          </mxGeometry>
        </mxCell>
        <mxCell id="AH9lQ4MrwQAidTvipS9e-22" value="Data Upload,Publication Association" style="endArrow=blockThin;endFill=1;fontSize=11;orthogonal=1;noEdgeStyle=1;" edge="1" parent="1" source="AH9lQ4MrwQAidTvipS9e-5" target="AH9lQ4MrwQAidTvipS9e-9">
          <mxGeometry relative="1" as="geometry">
            <Array as="points">
              <mxPoint x="396.25" y="182" />
              <mxPoint x="386.25" y="258" />
            </Array>
          </mxGeometry>
        </mxCell>
        <mxCell id="AH9lQ4MrwQAidTvipS9e-23" value="Email Notification Preferences" style="endArrow=blockThin;endFill=1;fontSize=11;orthogonal=1;noEdgeStyle=1;" edge="1" parent="1" source="AH9lQ4MrwQAidTvipS9e-6" target="AH9lQ4MrwQAidTvipS9e-10">
          <mxGeometry relative="1" as="geometry">
            <Array as="points">
              <mxPoint x="673.75" y="182" />
              <mxPoint x="693.75" y="258" />
            </Array>
          </mxGeometry>
        </mxCell>
        <mxCell id="AH9lQ4MrwQAidTvipS9e-24" value="Report/Dataset Timing" style="endArrow=blockThin;endFill=1;fontSize=11;orthogonal=1;noEdgeStyle=1;" edge="1" parent="1" source="AH9lQ4MrwQAidTvipS9e-7" target="AH9lQ4MrwQAidTvipS9e-11">
          <mxGeometry relative="1" as="geometry">
            <Array as="points">
              <mxPoint x="913.75" y="182" />
              <mxPoint x="898.75" y="258" />
            </Array>
          </mxGeometry>
        </mxCell>
        <mxCell id="AH9lQ4MrwQAidTvipS9e-25" value="Access Repository Items" style="endArrow=blockThin;endFill=1;fontSize=11;orthogonal=1;noEdgeStyle=1;" edge="1" parent="1" source="AH9lQ4MrwQAidTvipS9e-1" target="AH9lQ4MrwQAidTvipS9e-12">
          <mxGeometry relative="1" as="geometry">
            <Array as="points">
              <mxPoint x="165" y="47" />
              <mxPoint x="195" y="85" />
              <mxPoint x="195" y="220" />
              <mxPoint x="195" y="220" />
              <mxPoint x="195" y="355" />
              <mxPoint x="145" y="393" />
            </Array>
          </mxGeometry>
        </mxCell>
        <mxCell id="AH9lQ4MrwQAidTvipS9e-26" value="Access Repository Items" style="endArrow=blockThin;endFill=1;fontSize=11;orthogonal=1;noEdgeStyle=1;" edge="1" parent="1" source="AH9lQ4MrwQAidTvipS9e-8" target="AH9lQ4MrwQAidTvipS9e-12">
          <mxGeometry relative="1" as="geometry">
            <Array as="points">
              <mxPoint x="82.5" y="317" />
              <mxPoint x="92.5" y="393" />
            </Array>
          </mxGeometry>
        </mxCell>
        <mxCell id="AH9lQ4MrwQAidTvipS9e-27" value="Manage Data and Publications" style="endArrow=blockThin;endFill=1;fontSize=11;orthogonal=1;noEdgeStyle=1;" edge="1" parent="1" source="AH9lQ4MrwQAidTvipS9e-2" target="AH9lQ4MrwQAidTvipS9e-13">
          <mxGeometry relative="1" as="geometry">
            <Array as="points">
              <mxPoint x="347.9166666666667" y="47" />
              <mxPoint x="268.75" y="85" />
              <mxPoint x="268.75" y="220" />
              <mxPoint x="268.75" y="220" />
              <mxPoint x="268.75" y="355" />
              <mxPoint x="282.5" y="393" />
            </Array>
          </mxGeometry>
        </mxCell>
        <mxCell id="AH9lQ4MrwQAidTvipS9e-28" value="Manage Data and Publications" style="endArrow=blockThin;endFill=1;fontSize=11;orthogonal=1;noEdgeStyle=1;" edge="1" parent="1" source="AH9lQ4MrwQAidTvipS9e-9" target="AH9lQ4MrwQAidTvipS9e-13">
          <mxGeometry relative="1" as="geometry">
            <Array as="points">
              <mxPoint x="360" y="317" />
              <mxPoint x="325" y="393" />
            </Array>
          </mxGeometry>
        </mxCell>
        <mxCell id="AH9lQ4MrwQAidTvipS9e-29" value="Manage Data and Publications" style="endArrow=blockThin;endFill=1;fontSize=11;orthogonal=1;noEdgeStyle=1;" edge="1" parent="1" source="AH9lQ4MrwQAidTvipS9e-2" target="AH9lQ4MrwQAidTvipS9e-14">
          <mxGeometry relative="1" as="geometry">
            <Array as="points">
              <mxPoint x="444.5833333333333" y="47" />
              <mxPoint x="523.75" y="85" />
              <mxPoint x="523.75" y="220" />
              <mxPoint x="523.75" y="220" />
              <mxPoint x="523.75" y="355" />
              <mxPoint x="495" y="393" />
            </Array>
          </mxGeometry>
        </mxCell>
        <mxCell id="AH9lQ4MrwQAidTvipS9e-30" value="Manage Data and Publications" style="endArrow=blockThin;endFill=1;fontSize=11;orthogonal=1;noEdgeStyle=1;" edge="1" parent="1" source="AH9lQ4MrwQAidTvipS9e-9" target="AH9lQ4MrwQAidTvipS9e-14">
          <mxGeometry relative="1" as="geometry">
            <Array as="points">
              <mxPoint x="412.5" y="317" />
              <mxPoint x="422.5" y="393" />
            </Array>
          </mxGeometry>
        </mxCell>
        <mxCell id="AH9lQ4MrwQAidTvipS9e-31" value="Notification Preferences" style="endArrow=blockThin;endFill=1;fontSize=11;orthogonal=1;noEdgeStyle=1;" edge="1" parent="1" source="AH9lQ4MrwQAidTvipS9e-3" target="AH9lQ4MrwQAidTvipS9e-15">
          <mxGeometry relative="1" as="geometry">
            <Array as="points">
              <mxPoint x="840.625" y="49" />
              <mxPoint x="781.25" y="85" />
              <mxPoint x="781.25" y="220" />
              <mxPoint x="786.25" y="220" />
              <mxPoint x="786.25" y="355" />
              <mxPoint x="777.5" y="393" />
            </Array>
          </mxGeometry>
        </mxCell>
        <mxCell id="AH9lQ4MrwQAidTvipS9e-32" value="Notification Preferences" style="endArrow=blockThin;endFill=1;fontSize=11;orthogonal=1;noEdgeStyle=1;" edge="1" parent="1" source="AH9lQ4MrwQAidTvipS9e-10" target="AH9lQ4MrwQAidTvipS9e-15">
          <mxGeometry relative="1" as="geometry">
            <Array as="points">
              <mxPoint x="693.75" y="317" />
              <mxPoint x="690" y="393" />
            </Array>
          </mxGeometry>
        </mxCell>
        <mxCell id="AH9lQ4MrwQAidTvipS9e-33" value="Access Report/Dataset Schedule" style="endArrow=blockThin;endFill=1;fontSize=11;orthogonal=1;noEdgeStyle=1;" edge="1" parent="1" source="AH9lQ4MrwQAidTvipS9e-3" target="AH9lQ4MrwQAidTvipS9e-16">
          <mxGeometry relative="1" as="geometry">
            <Array as="points">
              <mxPoint x="868.125" y="47" />
              <mxPoint x="1046.25" y="85" />
              <mxPoint x="1046.25" y="220" />
              <mxPoint x="1046.25" y="220" />
              <mxPoint x="1046.25" y="355" />
              <mxPoint x="988.75" y="393" />
            </Array>
          </mxGeometry>
        </mxCell>
        <mxCell id="AH9lQ4MrwQAidTvipS9e-34" value="Access Report/Dataset Schedule" style="endArrow=blockThin;endFill=1;fontSize=11;orthogonal=1;noEdgeStyle=1;" edge="1" parent="1" source="AH9lQ4MrwQAidTvipS9e-11" target="AH9lQ4MrwQAidTvipS9e-16">
          <mxGeometry relative="1" as="geometry">
            <Array as="points">
              <mxPoint x="898.75" y="317" />
              <mxPoint x="921.25" y="393" />
            </Array>
          </mxGeometry>
        </mxCell>
      </root>
    </mxGraphModel>
  </diagram>
</mxfile>
